<?xml version="1.0" standalone="no"?>
<!DOCTYPE svg PUBLIC "-//W3C//DTD SVG 20010904//EN"
 "http://www.w3.org/TR/2001/REC-SVG-20010904/DTD/svg10.dtd">
<svg version="1.0" xmlns="http://www.w3.org/2000/svg"
 width="1200.000000pt" height="1200.000000pt" viewBox="0 0 1200.000000 1200.000000"
 preserveAspectRatio="xMidYMid meet">
<metadata>
Created by potrace 1.14, written by Peter Selinger 2001-2017
</metadata>
<g transform="translate(0.000000,1200.000000) scale(0.100000,-0.100000)"
fill="#000000" stroke="none">
<path d="M5788 11715 c-2 -1 -61 -5 -133 -9 -71 -3 -141 -8 -155 -10 -14 -3
-61 -7 -104 -11 -43 -4 -86 -8 -95 -10 -9 -2 -44 -6 -76 -10 -33 -4 -67 -9
-75 -10 -8 -1 -35 -6 -60 -10 -25 -4 -52 -9 -60 -10 -42 -7 -106 -19 -110 -20
-3 -1 -25 -5 -50 -9 -58 -10 -421 -100 -491 -121 -175 -54 -431 -144 -514
-180 -16 -8 -55 -23 -85 -35 -30 -12 -59 -25 -65 -30 -5 -4 -21 -11 -35 -15
-49 -14 -417 -203 -565 -290 -172 -101 -377 -237 -514 -339 -52 -39 -106 -80
-121 -91 -15 -11 -47 -36 -71 -57 -24 -20 -64 -53 -89 -73 -188 -154 -573
-539 -683 -683 -12 -15 -28 -34 -37 -42 -9 -8 -38 -44 -65 -80 -28 -36 -52
-67 -55 -70 -30 -30 -236 -321 -307 -435 -141 -225 -300 -519 -391 -725 -110
-250 -192 -474 -270 -735 -89 -299 -170 -708 -197 -1000 -3 -33 -8 -73 -10
-90 -24 -182 -25 -828 0 -1030 2 -16 6 -57 9 -90 3 -33 8 -76 11 -95 2 -19 7
-55 10 -80 5 -39 11 -81 32 -205 2 -16 14 -75 25 -130 11 -55 22 -111 24 -124
3 -13 12 -51 20 -85 8 -34 16 -68 19 -77 27 -116 114 -400 170 -554 20 -55 39
-109 42 -120 3 -11 9 -24 13 -30 4 -5 24 -53 45 -105 51 -130 227 -488 315
-640 95 -164 276 -440 357 -545 5 -5 34 -44 65 -85 31 -41 96 -123 144 -181
520 -623 1170 -1133 1884 -1480 111 -54 270 -124 465 -204 206 -86 753 -242
945 -270 24 -4 47 -8 50 -10 3 -2 23 -6 45 -9 22 -4 81 -13 130 -21 190 -29
390 -50 597 -60 183 -10 571 -4 728 10 30 3 84 7 120 11 36 3 76 7 90 9 14 2
50 7 80 10 71 7 322 50 442 74 95 20 389 94 443 111 16 6 91 30 166 54 138 45
198 67 374 138 338 136 731 346 1040 556 311 211 572 428 845 702 150 150 183
186 285 305 33 39 62 72 65 75 14 14 126 156 192 245 88 117 232 330 291 430
23 38 46 78 52 87 100 168 244 451 335 663 29 66 53 125 54 130 2 6 7 21 13
35 21 53 73 199 106 300 65 199 144 503 172 665 3 17 8 37 10 45 2 8 7 35 10
60 4 24 8 47 10 50 2 3 6 34 10 70 4 36 8 67 10 70 2 3 6 34 10 70 4 36 8 72
10 81 2 8 6 53 10 100 4 46 8 100 10 120 24 240 18 781 -11 1004 -2 17 -6 57
-9 90 -3 33 -8 72 -10 86 -3 14 -7 42 -9 62 -6 45 -12 80 -36 217 -11 58 -21
116 -24 130 -25 147 -125 511 -196 715 -118 342 -232 593 -434 958 -95 173
-292 473 -408 622 -466 598 -910 1005 -1541 1409 -48 31 -90 56 -93 56 -2 0
-23 12 -47 27 -95 60 -396 215 -562 290 -373 167 -890 327 -1285 397 -19 3
-44 8 -55 10 -11 2 -56 9 -100 16 -44 6 -91 13 -105 15 -14 2 -50 7 -80 10
-30 3 -66 8 -80 10 -14 2 -59 7 -100 10 -41 3 -102 8 -135 11 -61 6 -592 14
-597 9z"/>
</g>
</svg>
