<svg xmlns:xlink="http://www.w3.org/1999/xlink" xmlns="http://www.w3.org/2000/svg" class="MuiSvgIcon-root MuiSvgIcon-fontSizeLarge" focusable="false" viewBox="2 9 29 15" aria-hidden="true" width="35"  height="35" ><path d="M7.71 9.57h0.94v-3.71c0-0 0-0 0-0 0-0.118-0.093-0.214-0.21-0.22l-0.001-0h-3.74c-0 0-0 0-0 0-0.116 0-0.21 0.094-0.21 0.21 0 0.004 0 0.007 0 0.011l-0-0v15.92c0 0 0 0 0 0 0 0.11 0.090 0.2 0.2 0.2 0.004 0 0.007-0 0.011-0l-0 0h3.74c0 0 0 0 0 0 0.112 0 0.204-0.088 0.21-0.2l0-0v-1h-0.94c-0.171-0.030-0.3-0.177-0.3-0.355s0.129-0.325 0.298-0.355l0.002-0h0.94v-1.9h-0.94c-0.171-0.030-0.3-0.177-0.3-0.355s0.129-0.325 0.298-0.355l0.002-0h0.94v-1.92h-0.94c-0.171-0.030-0.3-0.177-0.3-0.355s0.129-0.325 0.298-0.355l0.002-0h0.94v-1.92h-0.94c-0.171-0.030-0.3-0.177-0.3-0.355s0.129-0.325 0.298-0.355l0.002-0h0.94v-1.92h-0.94c-0.194-0.006-0.35-0.165-0.35-0.36 0-0 0-0 0-0v0c0-0.193 0.157-0.35 0.35-0.35v0zM6.9 8.5c-0.021 0.001-0.045 0.002-0.070 0.002-0.646 0-1.17-0.524-1.17-1.17s0.524-1.17 1.17-1.17c0.645 0 1.169 0.523 1.17 1.168v0c0 0.003 0 0.008 0 0.012 0 0.62-0.486 1.126-1.097 1.158l-0.003 0z" fill-opacity="0.87" fill="#000000"></path><path d="M29.32 24.94c-0.753-0.824-1.831-1.338-3.030-1.338-0.461 0-0.905 0.076-1.319 0.217l0.029-0.009c-0.694 0.27-1.282 0.675-1.757 1.187l-0.003 0.003c-0.51 0.583-1.256 0.949-2.087 0.949-0.808 0-1.535-0.346-2.041-0.897l-0.002-0.002-0.11-0.11c-0.754-0.823-1.834-1.337-3.033-1.337-0.46 0-0.903 0.076-1.316 0.215l0.029-0.009c-0.662 0.281-1.223 0.684-1.676 1.186l-0.004 0.004c-2.28 2-4 0.17-4.13 0.050l-0.080-0.080c-0.752-0.822-1.83-1.336-3.028-1.336-0.458 0-0.899 0.075-1.311 0.214l0.029-0.008c-0.73 0.248-1.353 0.646-1.859 1.159l-0.001 0.001c-0.177 0.237-0.284 0.535-0.284 0.858 0 0.266 0.072 0.515 0.197 0.728l-0.004-0.007c0.111 0.232 0.345 0.39 0.615 0.39 0.216 0 0.409-0.101 0.534-0.259l0.001-0.001c0.508-0.553 1.235-0.899 2.043-0.899 0.831 0 1.577 0.366 2.085 0.946l0.003 0.003c0.476 0.537 1.069 0.959 1.739 1.229l0.031 0.011c0.38 0.128 0.817 0.202 1.272 0.202 1.202 0 2.284-0.516 3.035-1.339l0.003-0.003c0.032-0.022 0.058-0.048 0.079-0.079l0.001-0.001c0.508-0.553 1.235-0.899 2.043-0.899 0.831 0 1.577 0.366 2.085 0.946l0.003 0.003c0.479 0.512 1.072 0.912 1.739 1.16l0.031 0.010c0.369 0.132 0.796 0.209 1.239 0.21h0c1.205-0.047 2.282-0.554 3.070-1.35l0-0 0.070-0.080c0.11-0.12 1.87-2 4.17 0.080 0.123 0.109 0.285 0.176 0.464 0.176 0.31 0 0.573-0.201 0.665-0.481l0.001-0.005c0.099-0.187 0.157-0.409 0.157-0.644 0-0.375-0.147-0.715-0.387-0.967l0 0.001z" fill-opacity="0.87" fill="#000000"></path><path d="M29.32 13.16c-0.754-0.837-1.841-1.361-3.051-1.361-0.454 0-0.89 0.074-1.298 0.21l0.029-0.008c-0.696 0.26-1.288 0.655-1.768 1.158l-0.002 0.002c-0.51 0.583-1.256 0.949-2.087 0.949-0.808 0-1.535-0.346-2.041-0.897l-0.002-0.002-0.1-0.050c-0.755-0.831-1.839-1.35-3.045-1.35-0.441 0-0.866 0.069-1.264 0.198l0.029-0.008c-0.678 0.276-1.252 0.68-1.717 1.187l-0.003 0.003c-0.515 0.538-1.208 0.903-1.984 0.998l-0.016 0.002v2.24c1.148-0.114 2.156-0.641 2.887-1.427l0.003-0.003h0.11c0.509-0.558 1.239-0.907 2.050-0.907s1.541 0.349 2.048 0.905l0.002 0.002c0.479 0.512 1.072 0.912 1.739 1.16l0.031 0.010c0.369 0.135 0.794 0.216 1.238 0.22h0.002c1.209-0.060 2.287-0.581 3.069-1.389l0.001-0.001c0.028-0.022 0.052-0.048 0.069-0.079l0.001-0.001c0.11-0.12 1.87-2 4.17 0.080 0.123 0.109 0.285 0.176 0.464 0.176 0.31 0 0.573-0.201 0.665-0.481l0.001-0.005c0.083-0.173 0.131-0.377 0.131-0.592 0-0.362-0.137-0.691-0.362-0.94l0.001 0.001z" fill-opacity="0.87" fill="#000000"></path><path d="M29.32 18.84c-0.751-0.829-1.832-1.347-3.034-1.347-0.46 0-0.902 0.076-1.315 0.216l0.029-0.009c-0.696 0.26-1.288 0.655-1.768 1.158l-0.002 0.002c-0.509 0.586-1.255 0.954-2.087 0.954-0.809 0-1.536-0.348-2.041-0.902l-0.002-0.002c-0.021-0.026-0.044-0.049-0.069-0.069l-0.001-0.001c-0.753-0.828-1.835-1.346-3.037-1.346-0.459 0-0.9 0.075-1.312 0.214l0.029-0.008c-0.672 0.268-1.243 0.663-1.708 1.157l-0.002 0.003c-0.521 0.52-1.213 0.867-1.986 0.949l-0.014 0.001v2.24c1.15-0.084 2.169-0.584 2.919-1.349l0.001-0.001 0.080-0.080c0.508-0.553 1.235-0.899 2.043-0.899 0.831 0 1.577 0.366 2.085 0.946l0.003 0.003c0.479 0.512 1.072 0.912 1.739 1.16l0.031 0.010c0.369 0.135 0.794 0.216 1.238 0.22h0.002c1.206-0.052 2.283-0.562 3.070-1.36l0-0c0.030-0.020 0.054-0.047 0.070-0.079l0-0.001c0.11-0.12 1.87-2 4.17 0.080 0.123 0.109 0.285 0.176 0.464 0.176 0.31 0 0.573-0.201 0.665-0.481l0.001-0.005c0.083-0.172 0.131-0.374 0.131-0.587 0-0.375-0.149-0.714-0.392-0.963l0 0z" fill-opacity="0.87" fill="#000000"></path></svg>