<svg xmlns:xlink="http://www.w3.org/1999/xlink" xmlns="http://www.w3.org/2000/svg" class="MuiSvgIcon-root MuiSvgIcon-fontSizeLarge" focusable="false" viewBox="2 9 29 15" aria-hidden="true" width="35"  height="35" ><path d="M10.17 23.91h-7.7l5.19-16.8h2.35l0.16 16.8z" fill-opacity="0.87" fill="#000000"></path><path d="M29.26 22.080c-0.509-0.545-1.232-0.885-2.034-0.885-0.306 0-0.6 0.049-0.876 0.141l0.020-0.006c-0.468 0.17-0.866 0.433-1.189 0.769l-0.001 0.001c-0.345 0.378-0.84 0.614-1.39 0.614s-1.045-0.236-1.389-0.613l-0.001-0.001v-0.050c-0.512-0.545-1.238-0.885-2.042-0.885-0.306 0-0.601 0.049-0.877 0.14l0.020-0.006c-0.464 0.172-0.858 0.435-1.179 0.769l-0.001 0.001c-0.345 0.378-0.84 0.614-1.39 0.614s-1.045-0.236-1.389-0.613l-0.001-0.001-0.050-0.050c-0.512-0.545-1.238-0.885-2.042-0.885-0.306 0-0.601 0.049-0.877 0.14l0.020-0.006c-0.48 0.177-0.889 0.451-1.219 0.799l-0.001 0.001c-0.12 0.156-0.192 0.354-0.192 0.569 0 0.177 0.049 0.343 0.134 0.485l-0.002-0.004c0.080 0.151 0.237 0.252 0.416 0.252 0.146 0 0.277-0.067 0.363-0.171l0.001-0.001c0.345-0.375 0.838-0.609 1.385-0.609s1.040 0.234 1.384 0.607l0.001 0.001c0.324 0.338 0.722 0.601 1.169 0.763l0.021 0.007c0.258 0.087 0.555 0.138 0.864 0.138 0.803 0 1.527-0.341 2.035-0.886l0.002-0.002h0.050c0.345-0.375 0.838-0.609 1.385-0.609s1.040 0.234 1.384 0.607l0.001 0.001c0.324 0.338 0.722 0.601 1.169 0.763l0.021 0.007c0.246 0.090 0.531 0.145 0.828 0.15l0.002 0c0.81-0.033 1.535-0.371 2.070-0.9l-0 0h0.050c0.347-0.382 0.846-0.62 1.4-0.62s1.053 0.239 1.399 0.619l0.001 0.002c0.083 0.075 0.193 0.121 0.314 0.121 0.206 0 0.381-0.133 0.445-0.317l0.001-0.003c0.037-0.095 0.058-0.204 0.058-0.319 0-0.251-0.103-0.478-0.268-0.641l-0-0z" fill-opacity="0.87" fill="#000000"></path><path d="M29.26 18.050c-0.513-0.543-1.239-0.881-2.043-0.881-0.302 0-0.594 0.048-0.867 0.136l0.020-0.006c-0.468 0.17-0.866 0.433-1.189 0.769l-0.001 0.001c-0.345 0.378-0.84 0.614-1.39 0.614s-1.045-0.236-1.389-0.613l-0.001-0.001v-0.050c-0.515-0.544-1.242-0.882-2.048-0.882-0.304 0-0.597 0.048-0.872 0.137l0.020-0.006c-0.464 0.172-0.858 0.435-1.179 0.769l-0.001 0.001c-0.345 0.378-0.84 0.614-1.39 0.614s-1.045-0.236-1.389-0.613l-0.001-0.001-0.050-0.050c-0.515-0.544-1.242-0.882-2.048-0.882-0.304 0-0.597 0.048-0.872 0.137l0.020-0.006c-0.481 0.179-0.89 0.456-1.218 0.808l-0.002 0.002c-0.112 0.151-0.18 0.341-0.18 0.546 0 0.167 0.044 0.323 0.122 0.458l-0.002-0.004c0.076 0.155 0.233 0.261 0.415 0.261 0.149 0 0.281-0.070 0.365-0.18l0.001-0.001c0.345-0.375 0.838-0.609 1.385-0.609s1.040 0.234 1.384 0.607l0.001 0.001c0.304 0.37 0.685 0.665 1.121 0.862l0.019 0.008c0.258 0.087 0.555 0.138 0.864 0.138 0.803 0 1.527-0.341 2.035-0.886l0.002-0.002 0.050-0.050c0.345-0.375 0.838-0.609 1.385-0.609s1.040 0.234 1.384 0.607l0.001 0.001c0.324 0.333 0.723 0.593 1.169 0.753l0.021 0.007c0.246 0.095 0.531 0.15 0.828 0.15 0.001 0 0.001 0 0.002 0h-0c0.811-0.028 1.538-0.367 2.070-0.9l0.050-0.050c0.346-0.367 0.835-0.596 1.377-0.596 0.566 0 1.074 0.249 1.421 0.644l0.002 0.002c0.083 0.075 0.193 0.121 0.314 0.121 0.206 0 0.381-0.133 0.445-0.317l0.001-0.003c0.046-0.105 0.073-0.227 0.073-0.356 0-0.233-0.089-0.445-0.234-0.605l0.001 0.001z" fill-opacity="0.87" fill="#000000"></path><path d="M29.26 14.31c-0.513-0.543-1.239-0.881-2.043-0.881-0.302 0-0.594 0.048-0.867 0.136l0.020-0.006c-0.468 0.17-0.866 0.433-1.189 0.769l-0.001 0.001c-0.345 0.378-0.84 0.614-1.39 0.614s-1.045-0.236-1.389-0.613l-0.001-0.001c-0.515-0.543-1.242-0.882-2.048-0.882-0.304 0-0.597 0.048-0.872 0.137l0.020-0.006c-0.464 0.172-0.858 0.435-1.179 0.769l-0.001 0.001c-0.345 0.378-0.84 0.614-1.39 0.614s-1.045-0.236-1.389-0.613l-0.001-0.001h-0.050c-0.515-0.543-1.242-0.882-2.048-0.882-0.304 0-0.597 0.048-0.872 0.137l0.020-0.006c-0.481 0.179-0.89 0.456-1.218 0.808l-0.002 0.002c-0.112 0.151-0.18 0.341-0.18 0.546 0 0.167 0.044 0.323 0.122 0.458l-0.002-0.004c0.076 0.155 0.233 0.261 0.415 0.261 0.149 0 0.281-0.070 0.365-0.18l0.001-0.001c0.345-0.375 0.838-0.609 1.385-0.609s1.040 0.234 1.384 0.607l0.001 0.001c0.324 0.333 0.723 0.593 1.168 0.753l0.021 0.007c0.258 0.087 0.555 0.138 0.864 0.138 0.803 0 1.527-0.341 2.035-0.886l0.002-0.002h0.050c0.345-0.375 0.838-0.609 1.385-0.609s1.040 0.234 1.384 0.607l0.001 0.001c0.324 0.333 0.723 0.593 1.169 0.753l0.021 0.007c0.246 0.095 0.531 0.15 0.828 0.15 0.001 0 0.001 0 0.002 0h-0c0.811-0.028 1.538-0.367 2.070-0.9l0-0h0.050c0.347-0.382 0.846-0.62 1.4-0.62s1.053 0.239 1.399 0.619l0.001 0.002c0.083 0.075 0.193 0.121 0.314 0.121 0.206 0 0.381-0.133 0.445-0.317l0.001-0.003c0.044-0.103 0.070-0.222 0.070-0.348 0-0.257-0.107-0.488-0.28-0.652l-0-0z" fill-opacity="0.87" fill="#000000"></path></svg>